<svg width="26" height="37" viewBox="0 0 26 37" fill="none" xmlns="http://www.w3.org/2000/svg">
<path id="Vector" d="M14.2801 26.4365L14.0026 26.2145C13.8995 26.1445 13.7875 26.0885 13.6696 26.048L13.3366 25.9C13.0366 25.8373 12.7257 25.8501 12.4318 25.9373C12.138 26.0245 11.8704 26.1833 11.6531 26.3995C11.4897 26.5793 11.3583 26.7858 11.2646 27.01C11.1246 27.3471 11.0874 27.718 11.1578 28.0762C11.2281 28.4343 11.4028 28.7637 11.6599 29.0228C11.917 29.2818 12.245 29.4591 12.6026 29.5322C12.9602 29.6052 13.3315 29.5709 13.6696 29.4335C13.8907 29.3262 14.0961 29.1893 14.2801 29.0265C14.5368 28.7663 14.7107 28.436 14.7798 28.0771C14.849 27.7182 14.8103 27.3469 14.6686 27.01C14.5764 26.7961 14.4446 26.6015 14.2801 26.4365ZM20.3666 0H5.5666C4.09465 0 2.68299 0.584731 1.64216 1.62556C0.601332 2.66638 0.0166016 4.07805 0.0166016 5.55V31.45C0.0166016 32.922 0.601332 34.3336 1.64216 35.3744C2.68299 36.4153 4.09465 37 5.5666 37H20.3666C21.8386 37 23.2502 36.4153 24.291 35.3744C25.3319 34.3336 25.9166 32.922 25.9166 31.45V5.55C25.9166 4.07805 25.3319 2.66638 24.291 1.62556C23.2502 0.584731 21.8386 0 20.3666 0ZM22.2166 31.45C22.2166 31.9407 22.0217 32.4112 21.6748 32.7581C21.3278 33.1051 20.8573 33.3 20.3666 33.3H5.5666C5.07595 33.3 4.6054 33.1051 4.25845 32.7581C3.91151 32.4112 3.7166 31.9407 3.7166 31.45V5.55C3.7166 5.05935 3.91151 4.5888 4.25845 4.24185C4.6054 3.89491 5.07595 3.7 5.5666 3.7H20.3666C20.8573 3.7 21.3278 3.89491 21.6748 4.24185C22.0217 4.5888 22.2166 5.05935 22.2166 5.55V31.45Z" fill="#23AA49"/>
</svg>
